<mxfile host="65bd71144e">
    <diagram id="BRGzfFRRrwkUxnZL26n1" name="Page-1">
        <mxGraphModel dx="509" dy="347" grid="1" gridSize="10" guides="1" tooltips="1" connect="1" arrows="1" fold="1" page="1" pageScale="1" pageWidth="850" pageHeight="1100" math="0" shadow="0">
            <root>
                <mxCell id="0"/>
                <mxCell id="1" parent="0"/>
                <mxCell id="2" value="App" style="ellipse" vertex="1" parent="1">
                    <mxGeometry x="250" y="190" width="80" height="30" as="geometry"/>
                </mxCell>
                <mxCell id="3" value="Header" style="rounded=1;" vertex="1" parent="1">
                    <mxGeometry x="140" y="320" width="80" height="30" as="geometry"/>
                </mxCell>
                <mxCell id="4" value="" style="curved=1;noEdgeStyle=1;orthogonal=1;" edge="1" source="2" target="3" parent="1">
                    <mxGeometry relative="1" as="geometry">
                        <Array as="points">
                            <mxPoint x="266.6666666666667" y="232"/>
                            <mxPoint x="180" y="308"/>
                        </Array>
                    </mxGeometry>
                </mxCell>
                <mxCell id="5" value="PizzaForm" style="rounded=1;" vertex="1" parent="1">
                    <mxGeometry x="250" y="320" width="80" height="30" as="geometry"/>
                </mxCell>
                <mxCell id="6" value="" style="curved=1;noEdgeStyle=1;orthogonal=1;" edge="1" source="2" target="5" parent="1">
                    <mxGeometry relative="1" as="geometry">
                        <Array as="points">
                            <mxPoint x="290" y="234"/>
                            <mxPoint x="290" y="308"/>
                        </Array>
                    </mxGeometry>
                </mxCell>
                <mxCell id="7" value="PizzaList" style="rounded=1;" vertex="1" parent="1">
                    <mxGeometry x="360" y="320" width="80" height="30" as="geometry"/>
                </mxCell>
                <mxCell id="8" value="" style="curved=1;noEdgeStyle=1;orthogonal=1;" edge="1" source="2" target="7" parent="1">
                    <mxGeometry relative="1" as="geometry">
                        <Array as="points">
                            <mxPoint x="313.33333333333337" y="232"/>
                            <mxPoint x="400" y="308"/>
                        </Array>
                    </mxGeometry>
                </mxCell>
                <mxCell id="9" value="nothing" style="text;strokeColor=none;align=center;fillColor=none;html=1;verticalAlign=middle;whiteSpace=wrap;rounded=0;" vertex="1" parent="1">
                    <mxGeometry x="150" y="380" width="60" height="30" as="geometry"/>
                </mxCell>
                <mxCell id="11" style="edgeStyle=none;html=1;exitX=0.75;exitY=0;exitDx=0;exitDy=0;entryX=0;entryY=0.75;entryDx=0;entryDy=0;" edge="1" parent="1" source="10" target="7">
                    <mxGeometry relative="1" as="geometry"/>
                </mxCell>
                <mxCell id="10" value="takes a new pizza to be rendered in pizzaList" style="text;strokeColor=none;align=center;fillColor=none;html=1;verticalAlign=middle;whiteSpace=wrap;rounded=0;" vertex="1" parent="1">
                    <mxGeometry x="245" y="380" width="90" height="70" as="geometry"/>
                </mxCell>
                <mxCell id="13" style="edgeStyle=none;html=1;exitX=0;exitY=0.5;exitDx=0;exitDy=0;entryX=1;entryY=0.5;entryDx=0;entryDy=0;" edge="1" parent="1" source="12" target="2">
                    <mxGeometry relative="1" as="geometry"/>
                </mxCell>
                <mxCell id="12" value="pizzaData lives here" style="text;strokeColor=none;align=center;fillColor=none;html=1;verticalAlign=middle;whiteSpace=wrap;rounded=0;" vertex="1" parent="1">
                    <mxGeometry x="450" y="180" width="70" height="30" as="geometry"/>
                </mxCell>
                <mxCell id="15" style="edgeStyle=none;html=1;exitX=0;exitY=0;exitDx=0;exitDy=0;" edge="1" parent="1" source="14" target="5">
                    <mxGeometry relative="1" as="geometry"/>
                </mxCell>
                <mxCell id="14" value="pizza in list can be edited, sends data back to form" style="text;strokeColor=none;align=center;fillColor=none;html=1;verticalAlign=middle;whiteSpace=wrap;rounded=0;" vertex="1" parent="1">
                    <mxGeometry x="355" y="380" width="90" height="70" as="geometry"/>
                </mxCell>
                <mxCell id="17" style="edgeStyle=none;html=1;exitX=0.25;exitY=0;exitDx=0;exitDy=0;entryX=0;entryY=1;entryDx=0;entryDy=0;" edge="1" parent="1" source="16" target="2">
                    <mxGeometry relative="1" as="geometry"/>
                </mxCell>
                <mxCell id="16" value="newpizza must post to pizzaData and persist" style="text;strokeColor=none;align=center;fillColor=none;html=1;verticalAlign=middle;whiteSpace=wrap;rounded=0;" vertex="1" parent="1">
                    <mxGeometry x="200" y="470" width="100" height="50" as="geometry"/>
                </mxCell>
            </root>
        </mxGraphModel>
    </diagram>
</mxfile>